<?xml version="1.0" encoding="UTF-8" standalone="no"?>
<svg
   width="1444.44pt"
   height="414.041pt"
   viewBox="0 0 1444.44 414.041"
   version="1.2"
   id="svg108"
   sodipodi:docname="Palmotek - Logo.svg"
   inkscape:version="1.1 (c68e22c387, 2021-05-23)"
   xmlns:inkscape="http://www.inkscape.org/namespaces/inkscape"
   xmlns:sodipodi="http://sodipodi.sourceforge.net/DTD/sodipodi-0.dtd"
   xmlns="http://www.w3.org/2000/svg"
   xmlns:svg="http://www.w3.org/2000/svg">
  <defs
     id="defs112" />
  <sodipodi:namedview
     id="namedview110"
     pagecolor="#ffffff"
     bordercolor="#666666"
     borderopacity="1.0"
     inkscape:pageshadow="2"
     inkscape:pageopacity="0.0"
     inkscape:pagecheckerboard="0"
     inkscape:document-units="pt"
     showgrid="false"
     inkscape:zoom="0.43252058"
     inkscape:cx="962.95996"
     inkscape:cy="275.13142"
     inkscape:window-width="1368"
     inkscape:window-height="850"
     inkscape:window-x="-6"
     inkscape:window-y="-6"
     inkscape:window-maximized="1"
     inkscape:current-layer="svg108" />
  <g
     id="surface24583">
    <path
       style=" stroke:none;fill-rule:nonzero;fill:rgb(0%,40.79895%,21.998596%);fill-opacity:1;"
       d="M 174.222656 373.222656 C 173.554688 373.222656 172.890625 373.050781 172.289062 372.707031 C 171.097656 372.015625 170.359375 370.742188 170.359375 369.359375 L 170.359375 181.808594 C 170.359375 179.675781 172.089844 177.949219 174.222656 177.949219 C 176.355469 177.949219 178.085938 179.675781 178.085938 181.808594 L 178.085938 362.667969 L 304.523438 289.667969 L 304.523438 139.214844 L 174.222656 63.984375 L 43.921875 139.214844 L 43.921875 289.667969 L 86.84375 314.449219 C 88.6875 315.515625 89.324219 317.878906 88.253906 319.726562 C 87.1875 321.574219 84.828125 322.210938 82.980469 321.140625 L 38.128906 295.246094 C 36.933594 294.554688 36.195312 293.28125 36.195312 291.898438 L 36.195312 136.984375 C 36.195312 135.601562 36.933594 134.328125 38.128906 133.636719 L 172.289062 56.179688 C 173.488281 55.488281 174.957031 55.488281 176.152344 56.179688 L 310.316406 133.636719 C 311.511719 134.328125 312.246094 135.601562 312.246094 136.984375 L 312.246094 291.898438 C 312.246094 293.28125 311.511719 294.554688 310.316406 295.246094 L 176.152344 372.707031 C 175.554688 373.050781 174.890625 373.222656 174.222656 373.222656 "
       id="path9" />
    <path
       style=" stroke:none;fill-rule:nonzero;fill:rgb(0%,40.79895%,21.998596%);fill-opacity:1;"
       d="M 85.734375 306.011719 C 92.648438 306.011719 98.253906 311.617188 98.253906 318.527344 C 98.253906 325.441406 92.648438 331.046875 85.734375 331.046875 C 78.820312 331.046875 73.21875 325.441406 73.21875 318.527344 C 73.21875 311.617188 78.820312 306.011719 85.734375 306.011719 "
       id="path11" />
    <path
       style=" stroke:none;fill-rule:nonzero;fill:rgb(0%,40.79895%,21.998596%);fill-opacity:1;"
       d="M 174.226562 285.675781 C 172.871094 285.675781 171.558594 284.960938 170.851562 283.695312 C 169.808594 281.832031 170.476562 279.480469 172.339844 278.4375 L 233.753906 244.128906 L 233.753906 156.808594 C 233.753906 154.675781 235.484375 152.945312 237.617188 152.945312 C 239.75 152.945312 241.476562 154.675781 241.476562 156.808594 L 241.476562 246.394531 C 241.476562 247.792969 240.722656 249.082031 239.5 249.765625 L 176.105469 285.183594 C 175.511719 285.515625 174.863281 285.675781 174.226562 285.675781 "
       id="path13" />
    <path
       style=" stroke:none;fill-rule:nonzero;fill:rgb(0%,40.79895%,21.998596%);fill-opacity:1;"
       d="M 174.21875 230.464844 C 173.480469 230.464844 172.734375 230.253906 172.074219 229.8125 L 116.601562 192.71875 C 115.53125 192.003906 114.886719 190.796875 114.886719 189.507812 L 114.886719 155.132812 C 114.886719 153 116.617188 151.269531 118.75 151.269531 C 120.882812 151.269531 122.613281 153 122.613281 155.132812 L 122.613281 187.445312 L 176.371094 223.390625 C 178.144531 224.578125 178.617188 226.976562 177.433594 228.75 C 176.691406 229.863281 175.464844 230.464844 174.21875 230.464844 "
       id="path15" />
    <path
       style=" stroke:none;fill-rule:nonzero;fill:rgb(0%,40.79895%,21.998596%);fill-opacity:1;"
       d="M 174.21875 328.617188 C 173.5625 328.617188 172.898438 328.449219 172.289062 328.09375 L 71.285156 269.644531 C 70.089844 268.957031 69.355469 267.679688 69.355469 266.300781 L 69.355469 172.320312 C 69.355469 170.183594 71.085938 168.457031 73.21875 168.457031 C 75.351562 168.457031 77.082031 170.183594 77.082031 172.320312 L 77.082031 264.074219 L 176.15625 321.40625 C 178.003906 322.476562 178.632812 324.839844 177.566406 326.6875 C 176.851562 327.925781 175.554688 328.617188 174.21875 328.617188 "
       id="path17" />
    <path
       style=" stroke:none;fill-rule:nonzero;fill:rgb(0%,40.79895%,21.998596%);fill-opacity:1;"
       d="M 237.617188 142.617188 C 244.53125 142.617188 250.132812 148.21875 250.132812 155.132812 C 250.132812 162.042969 244.53125 167.648438 237.617188 167.648438 C 230.703125 167.648438 225.097656 162.042969 225.097656 155.132812 C 225.097656 148.21875 230.703125 142.617188 237.617188 142.617188 "
       id="path19" />
    <path
       style=" stroke:none;fill-rule:nonzero;fill:rgb(0%,40.79895%,21.998596%);fill-opacity:1;"
       d="M 174.222656 167.648438 C 181.136719 167.648438 186.738281 173.253906 186.738281 180.164062 C 186.738281 187.078125 181.136719 192.683594 174.222656 192.683594 C 167.308594 192.683594 161.707031 187.078125 161.707031 180.164062 C 161.707031 173.253906 167.308594 167.648438 174.222656 167.648438 "
       id="path21" />
    <path
       style=" stroke:none;fill-rule:nonzero;fill:rgb(0%,40.79895%,21.998596%);fill-opacity:1;"
       d="M 118.75 142.617188 C 125.664062 142.617188 131.265625 148.21875 131.265625 155.132812 C 131.265625 162.042969 125.664062 167.648438 118.75 167.648438 C 111.835938 167.648438 106.234375 162.042969 106.234375 155.132812 C 106.234375 148.21875 111.835938 142.617188 118.75 142.617188 "
       id="path23" />
    <path
       style=" stroke:none;fill-rule:nonzero;fill:rgb(0%,40.79895%,21.998596%);fill-opacity:1;"
       d="M 73.21875 159.804688 C 80.132812 159.804688 85.734375 165.40625 85.734375 172.320312 C 85.734375 179.234375 80.132812 184.835938 73.21875 184.835938 C 66.304688 184.835938 60.703125 179.234375 60.703125 172.320312 C 60.703125 165.40625 66.304688 159.804688 73.21875 159.804688 "
       id="path25" />
    <path
       style=" stroke:none;fill-rule:nonzero;fill:rgb(0%,40.79895%,21.998596%);fill-opacity:1;"
       d="M 352.125 152.410156 L 352.125 182.441406 L 374.070312 182.441406 C 378.230469 182.441406 381.769531 180.980469 384.695312 178.054688 C 387.621094 175.128906 389.085938 171.585938 389.085938 167.425781 C 389.085938 163.269531 387.621094 159.726562 384.695312 156.800781 C 381.769531 153.875 378.230469 152.410156 374.070312 152.410156 Z M 352.125 199.769531 L 352.125 232.109375 L 331.332031 232.109375 L 331.332031 135.085938 L 375.226562 135.085938 C 385.929688 135.085938 394.378906 138.378906 400.578125 144.960938 C 406.777344 151.546875 409.875 159.226562 409.875 168.003906 C 409.875 176.78125 406.585938 184.273438 400 190.46875 C 393.417969 196.667969 385.160156 199.769531 375.226562 199.769531 Z M 352.125 199.769531 "
       id="path27" />
    <path
       style=" stroke:none;fill-rule:nonzero;fill:rgb(0%,40.79895%,21.998596%);fill-opacity:1;"
       d="M 474.671875 195.148438 L 460.121094 158.996094 L 445.566406 195.148438 Z M 438.636719 211.316406 L 429.742188 232.109375 L 408.257812 232.109375 L 450.300781 135.085938 L 469.820312 135.085938 L 512.097656 232.109375 L 490.496094 232.109375 L 481.601562 211.316406 Z M 438.636719 211.316406 "
       id="path29" />
    <path
       style=" stroke:none;fill-rule:nonzero;fill:rgb(0%,40.79895%,21.998596%);fill-opacity:1;"
       d="M 517.523438 232.109375 L 517.523438 135.085938 L 538.316406 135.085938 L 538.316406 214.785156 L 579.898438 214.785156 L 579.898438 232.109375 Z M 517.523438 232.109375 "
       id="path31" />
    <path
       style=" stroke:none;fill-rule:nonzero;fill:rgb(0%,40.79895%,21.998596%);fill-opacity:1;"
       d="M 603.691406 175.859375 L 603.691406 232.109375 L 582.898438 232.109375 L 582.898438 135.085938 L 602.417969 135.085938 L 636.03125 193.300781 L 670.683594 135.085938 L 689.046875 135.085938 L 689.046875 232.109375 L 668.257812 232.109375 L 668.257812 176.667969 L 643.539062 221.714844 L 629.101562 221.714844 Z M 603.691406 175.859375 "
       id="path33" />
    <path
       style=" stroke:none;fill-rule:nonzero;fill:rgb(0%,40.79895%,21.998596%);fill-opacity:1;"
       d="M 748.761719 151.257812 C 741.523438 151.257812 735.285156 154.125 730.050781 159.859375 C 724.8125 165.597656 722.195312 173.511719 722.195312 183.597656 C 722.195312 193.6875 724.8125 201.597656 730.050781 207.332031 C 735.285156 213.070312 741.523438 215.9375 748.761719 215.9375 C 756 215.9375 762.238281 213.070312 767.472656 207.332031 C 772.710938 201.597656 775.328125 193.6875 775.328125 183.597656 C 775.328125 173.511719 772.710938 165.597656 767.472656 159.859375 C 762.238281 154.125 756 151.257812 748.761719 151.257812 M 782.316406 147.558594 C 791.515625 156.648438 796.121094 168.660156 796.121094 183.597656 C 796.121094 199.304688 791.515625 211.511719 782.316406 220.210938 C 773.113281 228.914062 761.929688 233.265625 748.761719 233.265625 C 735.597656 233.265625 724.410156 228.914062 715.210938 220.210938 C 706.007812 211.511719 701.40625 199.304688 701.40625 183.597656 C 701.40625 168.660156 706.007812 156.648438 715.210938 147.558594 C 724.410156 138.476562 735.597656 133.929688 748.761719 133.929688 C 761.929688 133.929688 773.113281 138.476562 782.316406 147.558594 "
       id="path35" />
    <path
       style=" stroke:none;fill-rule:nonzero;fill:rgb(0%,40.79895%,21.998596%);fill-opacity:1;"
       d="M 873.160156 135.085938 L 873.160156 152.410156 L 843.015625 152.410156 L 843.015625 232.109375 L 822.222656 232.109375 L 822.222656 152.410156 L 792.191406 152.410156 L 792.191406 135.085938 Z M 873.160156 135.085938 "
       id="path37" />
    <path
       style=" stroke:none;fill-rule:nonzero;fill:rgb(0%,40.79895%,21.998596%);fill-opacity:1;"
       d="M 938.417969 135.085938 L 938.417969 152.410156 L 894.527344 152.410156 L 894.527344 174.355469 L 933.800781 174.355469 L 933.800781 191.683594 L 894.527344 191.683594 L 894.527344 215.9375 L 938.417969 215.9375 L 938.417969 232.109375 L 873.734375 232.109375 L 873.734375 135.085938 Z M 938.417969 135.085938 "
       id="path39" />
    <path
       style=" stroke:none;fill-rule:nonzero;fill:rgb(0%,40.79895%,21.998596%);fill-opacity:1;"
       d="M 952.972656 232.109375 L 952.972656 135.085938 L 973.761719 135.085938 L 973.761719 173.546875 L 1004.484375 135.085938 L 1030.476562 135.085938 L 994.554688 177.9375 L 1031.398438 232.109375 L 1007.488281 232.109375 L 980.691406 194.339844 L 973.761719 202.886719 L 973.761719 232.109375 Z M 952.972656 232.109375 "
       id="path41" />
    <path
       style=" stroke:none;fill-rule:nonzero;fill:rgb(0%,40.79895%,21.998596%);fill-opacity:1;"
       d="M 1032.207031 218.25 L 1052.996094 218.25 L 1052.996094 232.109375 L 1032.207031 232.109375 Z M 1032.207031 218.25 "
       id="path43" />
    <path
       style=" stroke:none;fill-rule:nonzero;fill:rgb(0%,40.79895%,21.998596%);fill-opacity:1;"
       d="M 1131.769531 202.308594 L 1149.675781 211.664062 C 1140.355469 226.066406 1126.457031 233.265625 1107.976562 233.265625 C 1094.808594 233.265625 1083.625 228.914062 1074.421875 220.210938 C 1065.21875 211.511719 1060.621094 199.304688 1060.621094 183.597656 C 1060.621094 167.890625 1065.027344 155.683594 1073.84375 146.980469 C 1082.664062 138.28125 1094.039062 133.929688 1107.976562 133.929688 C 1126.457031 133.929688 1140.28125 140.785156 1149.445312 154.488281 L 1131.308594 164.191406 C 1125.765625 155.570312 1117.988281 151.257812 1107.976562 151.257812 C 1099.96875 151.257812 1093.539062 154.125 1088.6875 159.859375 C 1083.835938 165.597656 1081.410156 173.511719 1081.410156 183.597656 C 1081.410156 193.6875 1083.835938 201.597656 1088.6875 207.332031 C 1093.539062 213.070312 1099.96875 215.9375 1107.976562 215.9375 C 1117.988281 215.9375 1125.917969 211.394531 1131.769531 202.308594 "
       id="path45" />
    <path
       style=" stroke:none;fill-rule:nonzero;fill:rgb(0%,40.79895%,21.998596%);fill-opacity:1;"
       d="M 1203.382812 151.257812 C 1196.144531 151.257812 1189.90625 154.125 1184.671875 159.859375 C 1179.433594 165.597656 1176.816406 173.511719 1176.816406 183.597656 C 1176.816406 193.6875 1179.433594 201.597656 1184.671875 207.332031 C 1189.90625 213.070312 1196.144531 215.9375 1203.382812 215.9375 C 1210.621094 215.9375 1216.859375 213.070312 1222.09375 207.332031 C 1227.328125 201.597656 1229.949219 193.6875 1229.949219 183.597656 C 1229.949219 173.511719 1227.328125 165.597656 1222.09375 159.859375 C 1216.859375 154.125 1210.621094 151.257812 1203.382812 151.257812 M 1236.9375 147.558594 C 1246.136719 156.648438 1250.738281 168.660156 1250.738281 183.597656 C 1250.738281 199.304688 1246.136719 211.511719 1236.9375 220.210938 C 1227.734375 228.914062 1216.550781 233.265625 1203.382812 233.265625 C 1190.214844 233.265625 1179.027344 228.914062 1169.828125 220.210938 C 1160.625 211.511719 1156.027344 199.304688 1156.027344 183.597656 C 1156.027344 168.660156 1160.625 156.648438 1169.828125 147.558594 C 1179.027344 138.476562 1190.214844 133.929688 1203.382812 133.929688 C 1216.550781 133.929688 1227.734375 138.476562 1236.9375 147.558594 "
       id="path47" />
    <path
       style=" stroke:none;fill-rule:nonzero;fill:rgb(0%,40.79895%,21.998596%);fill-opacity:1;"
       d="M 1283.769531 175.859375 L 1283.769531 232.109375 L 1262.980469 232.109375 L 1262.980469 135.085938 L 1282.5 135.085938 L 1316.113281 193.300781 L 1350.765625 135.085938 L 1369.128906 135.085938 L 1369.128906 232.109375 L 1348.339844 232.109375 L 1348.339844 176.667969 L 1323.621094 221.714844 L 1309.183594 221.714844 Z M 1283.769531 175.859375 "
       id="path49" />
    <path
       style=" stroke:none;fill-rule:nonzero;fill:rgb(55.299377%,77.598572%,24.699402%);fill-opacity:1;"
       d="M 346.496094 270.617188 L 343.445312 272.535156 C 342.875 271.484375 342.332031 270.800781 341.816406 270.480469 C 341.277344 270.113281 340.585938 269.929688 339.734375 269.929688 C 338.691406 269.929688 337.828125 270.246094 337.136719 270.875 C 336.449219 271.492188 336.105469 272.269531 336.105469 273.207031 C 336.105469 274.496094 337.007812 275.535156 338.816406 276.324219 L 341.300781 277.40625 C 343.324219 278.273438 344.800781 279.332031 345.738281 280.582031 C 346.671875 281.832031 347.140625 283.367188 347.140625 285.183594 C 347.140625 287.617188 346.378906 289.628906 344.851562 291.21875 C 343.316406 292.816406 341.40625 293.617188 339.125 293.617188 C 336.964844 293.617188 335.179688 292.9375 333.769531 291.570312 C 332.382812 290.207031 331.515625 288.292969 331.171875 285.828125 L 334.976562 284.9375 C 335.152344 286.488281 335.453125 287.5625 335.882812 288.15625 C 336.65625 289.296875 337.785156 289.867188 339.269531 289.867188 C 340.441406 289.867188 341.414062 289.449219 342.191406 288.617188 C 342.964844 287.785156 343.351562 286.730469 343.351562 285.449219 C 343.351562 284.9375 343.285156 284.464844 343.148438 284.039062 C 343.015625 283.613281 342.804688 283.21875 342.519531 282.859375 C 342.234375 282.5 341.867188 282.164062 341.414062 281.847656 C 340.960938 281.535156 340.425781 281.234375 339.800781 280.949219 L 337.398438 279.890625 C 333.988281 278.363281 332.28125 276.125 332.28125 273.179688 C 332.28125 271.195312 332.996094 269.535156 334.425781 268.199219 C 335.859375 266.855469 337.636719 266.179688 339.765625 266.179688 C 342.636719 266.179688 344.882812 267.660156 346.496094 270.617188 "
       id="path51" />
    <path
       style=" stroke:none;fill-rule:nonzero;fill:rgb(55.299377%,77.598572%,24.699402%);fill-opacity:1;"
       d="M 365.671875 293.132812 L 370.914062 264.703125 L 379.464844 285.253906 L 388.320312 264.699219 L 393.035156 293.128906 L 389.179688 293.132812 L 386.773438 277.167969 L 379.402344 294.347656 L 372.234375 277.15625 L 369.5625 293.132812 Z M 365.671875 293.132812 "
       id="path53" />
    <path
       style=" stroke:none;fill-rule:nonzero;fill:rgb(55.299377%,77.598572%,24.699402%);fill-opacity:1;"
       d="M 426.273438 282.953125 L 422.578125 273.960938 L 418.707031 282.953125 Z M 427.808594 286.703125 L 417.144531 286.703125 L 414.371094 293.128906 L 410.320312 293.128906 L 422.640625 265.023438 L 434.535156 293.125 L 430.421875 293.125 Z M 427.808594 286.703125 "
       id="path55" />
    <path
       style=" stroke:none;fill-rule:nonzero;fill:rgb(55.299377%,77.598572%,24.699402%);fill-opacity:1;"
       d="M 456.273438 278.820312 L 457.46875 278.820312 C 461.027344 278.820312 462.808594 277.375 462.804688 274.488281 C 462.804688 271.78125 461.074219 270.425781 457.609375 270.429688 L 456.273438 270.429688 Z M 460.953125 281.851562 L 468.664062 293.121094 L 464.066406 293.121094 L 456.953125 282.296875 L 456.273438 282.296875 L 456.273438 293.121094 L 452.515625 293.121094 L 452.511719 266.675781 L 456.917969 266.675781 C 460.207031 266.675781 462.585938 267.332031 464.046875 268.648438 C 465.660156 270.109375 466.46875 272.035156 466.46875 274.433594 C 466.46875 276.308594 465.964844 277.917969 464.953125 279.265625 C 463.941406 280.613281 462.609375 281.476562 460.953125 281.851562 "
       id="path57" />
    <path
       style=" stroke:none;fill-rule:nonzero;fill:rgb(55.299377%,77.598572%,24.699402%);fill-opacity:1;"
       d="M 493.855469 270.421875 L 493.855469 293.117188 L 490.097656 293.117188 L 490.09375 270.421875 L 484.367188 270.425781 L 484.367188 266.671875 L 499.5625 266.671875 L 499.566406 270.421875 Z M 493.855469 270.421875 "
       id="path59" />
    <path
       style=" stroke:none;fill-rule:nonzero;fill:rgb(55.299377%,77.598572%,24.699402%);fill-opacity:1;"
       d="M 555.953125 282.933594 L 552.257812 273.941406 L 548.386719 282.933594 Z M 557.488281 286.683594 L 546.824219 286.6875 L 544.046875 293.109375 L 540 293.109375 L 552.320312 265.003906 L 564.214844 293.105469 L 560.101562 293.105469 Z M 557.488281 286.683594 "
       id="path61" />
    <path
       style=" stroke:none;fill-rule:nonzero;fill:rgb(55.299377%,77.598572%,24.699402%);fill-opacity:1;"
       d="M 593.871094 279.332031 L 604.164062 279.332031 L 604.164062 280.203125 C 604.164062 282.191406 603.945312 283.949219 603.503906 285.480469 C 603.074219 286.894531 602.351562 288.21875 601.328125 289.453125 C 599.015625 292.214844 596.074219 293.597656 592.503906 293.597656 C 589.019531 293.597656 586.035156 292.265625 583.550781 289.59375 C 581.066406 286.910156 579.824219 283.691406 579.820312 279.933594 C 579.820312 276.097656 581.082031 272.84375 583.613281 270.171875 C 586.140625 267.488281 589.214844 266.144531 592.839844 266.144531 C 594.785156 266.144531 596.601562 266.566406 598.292969 267.40625 C 599.90625 268.246094 601.492188 269.613281 603.050781 271.503906 L 600.375 274.226562 C 598.328125 271.339844 595.839844 269.894531 592.902344 269.894531 C 590.269531 269.894531 588.058594 270.859375 586.273438 272.789062 C 584.488281 274.6875 583.597656 277.0625 583.597656 279.914062 C 583.597656 282.863281 584.59375 285.289062 586.582031 287.195312 C 588.441406 288.964844 590.460938 289.847656 592.632812 289.847656 C 594.480469 289.847656 596.144531 289.1875 597.617188 287.867188 C 599.089844 286.53125 599.914062 284.9375 600.085938 283.082031 L 593.875 283.082031 Z M 593.871094 279.332031 "
       id="path63" />
    <path
       style=" stroke:none;fill-rule:nonzero;fill:rgb(55.299377%,77.598572%,24.699402%);fill-opacity:1;"
       d="M 627.519531 278.796875 L 628.710938 278.796875 C 632.273438 278.796875 634.050781 277.351562 634.050781 274.460938 C 634.050781 271.757812 632.320312 270.402344 628.855469 270.402344 L 627.515625 270.40625 Z M 632.199219 281.828125 L 639.910156 293.09375 L 635.3125 293.097656 L 628.195312 282.273438 L 627.519531 282.273438 L 627.519531 293.097656 L 623.761719 293.097656 L 623.757812 266.652344 L 628.164062 266.652344 C 631.453125 266.652344 633.832031 267.308594 635.292969 268.621094 C 636.90625 270.082031 637.714844 272.011719 637.714844 274.410156 C 637.714844 276.285156 637.207031 277.894531 636.199219 279.242188 C 635.1875 280.589844 633.851562 281.449219 632.199219 281.828125 "
       id="path65" />
    <path
       style=" stroke:none;fill-rule:nonzero;fill:rgb(55.299377%,77.598572%,24.699402%);fill-opacity:1;"
       d="M 662.273438 266.648438 L 662.28125 293.09375 L 658.519531 293.09375 L 658.515625 266.648438 Z M 662.273438 266.648438 "
       id="path67" />
    <path
       style=" stroke:none;fill-rule:nonzero;fill:rgb(55.299377%,77.598572%,24.699402%);fill-opacity:1;"
       d="M 701.535156 268.054688 L 701.535156 272.773438 C 699.363281 270.84375 697.117188 269.878906 694.792969 269.878906 C 692.234375 269.882812 690.078125 270.859375 688.324219 272.8125 C 686.558594 274.75 685.679688 277.125 685.679688 279.9375 C 685.679688 282.710938 686.5625 285.050781 688.328125 286.957031 C 690.089844 288.863281 692.253906 289.816406 694.8125 289.816406 C 696.136719 289.816406 697.257812 289.585938 698.183594 289.128906 C 698.699219 288.902344 699.234375 288.59375 699.789062 288.207031 C 700.34375 287.816406 700.925781 287.347656 701.539062 286.800781 L 701.539062 291.621094 C 699.390625 292.917969 697.128906 293.566406 694.765625 293.566406 C 691.203125 293.566406 688.164062 292.25 685.648438 289.613281 C 683.140625 286.953125 681.890625 283.742188 681.890625 279.988281 C 681.886719 276.617188 682.9375 273.617188 685.03125 270.980469 C 687.613281 267.746094 690.953125 266.128906 695.050781 266.128906 C 697.285156 266.128906 699.449219 266.773438 701.535156 268.054688 "
       id="path69" />
    <path
       style=" stroke:none;fill-rule:nonzero;fill:rgb(55.299377%,77.598572%,24.699402%);fill-opacity:1;"
       d="M 724.90625 266.640625 L 724.90625 282.554688 C 724.90625 284.824219 725.257812 286.484375 725.957031 287.535156 C 727 289.054688 728.46875 289.8125 730.363281 289.8125 C 732.265625 289.8125 733.738281 289.050781 734.78125 287.535156 C 735.480469 286.519531 735.828125 284.859375 735.828125 282.554688 L 735.828125 266.636719 L 739.585938 266.636719 L 739.589844 283.660156 C 739.589844 286.445312 738.773438 288.742188 737.136719 290.546875 C 735.296875 292.554688 733.039062 293.5625 730.363281 293.5625 C 727.683594 293.5625 725.429688 292.558594 723.601562 290.550781 C 721.964844 288.742188 721.148438 286.449219 721.148438 283.664062 L 721.144531 266.640625 Z M 724.90625 266.640625 "
       id="path71" />
    <path
       style=" stroke:none;fill-rule:nonzero;fill:rgb(55.299377%,77.598572%,24.699402%);fill-opacity:1;"
       d="M 764.179688 266.632812 L 764.183594 289.328125 L 771.507812 289.324219 L 771.507812 293.078125 L 760.425781 293.078125 L 760.421875 266.632812 Z M 764.179688 266.632812 "
       id="path73" />
    <path
       style=" stroke:none;fill-rule:nonzero;fill:rgb(55.299377%,77.598572%,24.699402%);fill-opacity:1;"
       d="M 795.199219 270.378906 L 795.199219 293.074219 L 791.441406 293.074219 L 791.4375 270.378906 L 785.710938 270.382812 L 785.710938 266.628906 L 800.90625 266.628906 L 800.910156 270.378906 Z M 795.199219 270.378906 "
       id="path75" />
    <path
       style=" stroke:none;fill-rule:nonzero;fill:rgb(55.299377%,77.598572%,24.699402%);fill-opacity:1;"
       d="M 822.890625 266.625 L 822.890625 282.542969 C 822.890625 284.8125 823.242188 286.472656 823.941406 287.519531 C 824.984375 289.039062 826.453125 289.796875 828.347656 289.796875 C 830.25 289.796875 831.722656 289.039062 832.765625 287.519531 C 833.464844 286.503906 833.816406 284.84375 833.8125 282.539062 L 833.8125 266.625 L 837.570312 266.625 L 837.574219 283.644531 C 837.574219 286.433594 836.757812 288.726562 835.121094 290.53125 C 833.285156 292.542969 831.023438 293.546875 828.347656 293.546875 C 825.667969 293.546875 823.414062 292.542969 821.585938 290.535156 C 819.953125 288.730469 819.132812 286.4375 819.132812 283.648438 L 819.128906 266.625 Z M 822.890625 266.625 "
       id="path77" />
    <path
       style=" stroke:none;fill-rule:nonzero;fill:rgb(55.299377%,77.598572%,24.699402%);fill-opacity:1;"
       d="M 862.167969 278.761719 L 863.363281 278.761719 C 866.921875 278.761719 868.703125 277.316406 868.699219 274.429688 C 868.699219 271.722656 866.96875 270.371094 863.503906 270.371094 L 862.167969 270.371094 Z M 866.847656 281.792969 L 874.558594 293.0625 L 869.960938 293.0625 L 862.84375 282.238281 L 862.167969 282.238281 L 862.167969 293.0625 L 858.410156 293.0625 L 858.40625 266.621094 L 862.8125 266.621094 C 866.101562 266.617188 868.480469 267.277344 869.941406 268.589844 C 871.554688 270.050781 872.363281 271.980469 872.363281 274.375 C 872.363281 276.25 871.855469 277.859375 870.847656 279.207031 C 869.835938 280.554688 868.503906 281.417969 866.847656 281.792969 "
       id="path79" />
    <path
       style=" stroke:none;fill-rule:nonzero;fill:rgb(55.299377%,77.598572%,24.699402%);fill-opacity:1;"
       d="M 906.910156 270.363281 L 896.925781 270.363281 L 896.925781 276.71875 L 906.621094 276.71875 L 906.621094 280.46875 L 896.925781 280.46875 L 896.929688 289.308594 L 906.914062 289.304688 L 906.914062 293.058594 L 893.171875 293.058594 L 893.164062 266.613281 L 906.910156 266.613281 Z M 906.910156 270.363281 "
       id="path81" />
    <path
       style=" stroke:none;fill-rule:nonzero;fill:rgb(55.299377%,77.598572%,24.699402%);fill-opacity:1;"
       d="M 958.652344 270.355469 L 958.652344 293.050781 L 954.894531 293.050781 L 954.890625 270.355469 L 949.164062 270.359375 L 949.164062 266.605469 L 964.359375 266.605469 L 964.363281 270.355469 Z M 958.652344 270.355469 "
       id="path83" />
    <path
       style=" stroke:none;fill-rule:nonzero;fill:rgb(55.299377%,77.598572%,24.699402%);fill-opacity:1;"
       d="M 996.332031 270.351562 L 986.34375 270.351562 L 986.34375 276.707031 L 996.039062 276.707031 L 996.042969 280.457031 L 986.34375 280.457031 L 986.347656 289.292969 L 996.332031 289.292969 L 996.332031 293.042969 L 982.589844 293.046875 L 982.585938 266.601562 L 996.328125 266.601562 Z M 996.332031 270.351562 "
       id="path85" />
    <path
       style=" stroke:none;fill-rule:nonzero;fill:rgb(55.299377%,77.598572%,24.699402%);fill-opacity:1;"
       d="M 1034.539062 268.007812 L 1034.539062 272.726562 C 1032.367188 270.796875 1030.121094 269.832031 1027.796875 269.832031 C 1025.238281 269.832031 1023.082031 270.808594 1021.328125 272.761719 C 1019.566406 274.703125 1018.683594 277.078125 1018.683594 279.886719 C 1018.683594 282.660156 1019.566406 285.003906 1021.332031 286.910156 C 1023.09375 288.816406 1025.257812 289.769531 1027.816406 289.769531 C 1029.140625 289.769531 1030.265625 289.539062 1031.1875 289.082031 C 1031.703125 288.855469 1032.238281 288.546875 1032.792969 288.15625 C 1033.347656 287.769531 1033.929688 287.300781 1034.542969 286.753906 L 1034.542969 291.574219 C 1032.394531 292.871094 1030.136719 293.519531 1027.769531 293.519531 C 1024.207031 293.519531 1021.167969 292.199219 1018.652344 289.566406 C 1016.148438 286.902344 1014.894531 283.695312 1014.894531 279.941406 C 1014.894531 276.570312 1015.941406 273.570312 1018.039062 270.929688 C 1020.617188 267.699219 1023.957031 266.082031 1028.054688 266.082031 C 1030.292969 266.082031 1032.453125 266.722656 1034.539062 268.007812 "
       id="path87" />
    <path
       style=" stroke:none;fill-rule:nonzero;fill:rgb(55.299377%,77.598572%,24.699402%);fill-opacity:1;"
       d="M 1058.605469 276.9375 L 1069.347656 276.933594 L 1069.347656 266.589844 L 1073.105469 266.589844 L 1073.109375 293.03125 L 1069.351562 293.035156 L 1069.347656 280.6875 L 1058.605469 280.6875 L 1058.605469 293.035156 L 1054.847656 293.035156 L 1054.84375 266.59375 L 1058.601562 266.589844 Z M 1058.605469 276.9375 "
       id="path89" />
    <path
       style=" stroke:none;fill-rule:nonzero;fill:rgb(55.299377%,77.598572%,24.699402%);fill-opacity:1;"
       d="M 1093.945312 293.03125 L 1093.941406 264.789062 L 1112.109375 284.960938 L 1112.109375 266.585938 L 1115.867188 266.582031 L 1115.871094 294.636719 L 1097.703125 274.515625 L 1097.707031 293.03125 Z M 1093.945312 293.03125 "
       id="path91" />
    <path
       style=" stroke:none;fill-rule:nonzero;fill:rgb(55.299377%,77.598572%,24.699402%);fill-opacity:1;"
       d="M 1139.480469 279.726562 C 1139.480469 282.644531 1140.40625 285.046875 1142.257812 286.929688 C 1144.097656 288.808594 1146.21875 289.753906 1148.628906 289.75 C 1151.242188 289.75 1153.449219 288.792969 1155.242188 286.875 C 1157.039062 284.9375 1157.9375 282.574219 1157.9375 279.789062 C 1157.9375 276.972656 1157.046875 274.613281 1155.273438 272.707031 C 1153.507812 270.789062 1151.328125 269.832031 1148.722656 269.832031 C 1146.132812 269.832031 1143.941406 270.789062 1142.15625 272.710938 C 1140.371094 274.601562 1139.480469 276.941406 1139.480469 279.726562 M 1135.6875 279.683594 C 1135.6875 275.960938 1136.972656 272.761719 1139.542969 270.089844 C 1142.101562 267.417969 1145.179688 266.082031 1148.769531 266.082031 C 1152.320312 266.082031 1155.363281 267.429688 1157.902344 270.121094 C 1160.453125 272.816406 1161.726562 276.054688 1161.726562 279.832031 C 1161.726562 283.636719 1160.449219 286.859375 1157.890625 289.511719 C 1155.320312 292.171875 1152.214844 293.5 1148.582031 293.503906 C 1145.367188 293.503906 1142.476562 292.320312 1139.917969 289.957031 C 1137.097656 287.34375 1135.691406 283.917969 1135.6875 279.683594 "
       id="path93" />
    <path
       style=" stroke:none;fill-rule:nonzero;fill:rgb(55.299377%,77.598572%,24.699402%);fill-opacity:1;"
       d="M 1185.078125 266.574219 L 1185.082031 289.265625 L 1192.40625 289.265625 L 1192.40625 293.015625 L 1181.324219 293.015625 L 1181.320312 266.574219 Z M 1185.078125 266.574219 "
       id="path95" />
    <path
       style=" stroke:none;fill-rule:nonzero;fill:rgb(55.299377%,77.598572%,24.699402%);fill-opacity:1;"
       d="M 1212.367188 279.714844 C 1212.371094 282.632812 1213.296875 285.035156 1215.144531 286.917969 C 1216.984375 288.800781 1219.109375 289.742188 1221.519531 289.742188 C 1224.132812 289.742188 1226.335938 288.78125 1228.132812 286.867188 C 1229.929688 284.925781 1230.824219 282.5625 1230.824219 279.78125 C 1230.824219 276.964844 1229.9375 274.601562 1228.160156 272.695312 C 1226.398438 270.78125 1224.214844 269.824219 1221.613281 269.824219 C 1219.019531 269.824219 1216.832031 270.78125 1215.046875 272.699219 C 1213.261719 274.59375 1212.367188 276.929688 1212.367188 279.714844 M 1208.578125 279.671875 C 1208.578125 275.949219 1209.863281 272.753906 1212.433594 270.082031 C 1214.992188 267.410156 1218.066406 266.074219 1221.660156 266.070312 C 1225.210938 266.070312 1228.253906 267.417969 1230.792969 270.113281 C 1233.339844 272.804688 1234.617188 276.042969 1234.617188 279.824219 C 1234.617188 283.625 1233.335938 286.851562 1230.777344 289.5 C 1228.207031 292.160156 1225.105469 293.492188 1221.46875 293.492188 C 1218.253906 293.492188 1215.367188 292.308594 1212.804688 289.949219 C 1209.988281 287.332031 1208.578125 283.910156 1208.578125 279.671875 "
       id="path97" />
    <path
       style=" stroke:none;fill-rule:nonzero;fill:rgb(55.299377%,77.598572%,24.699402%);fill-opacity:1;"
       d="M 1267.019531 279.234375 L 1277.3125 279.234375 L 1277.3125 280.105469 C 1277.3125 282.09375 1277.09375 283.851562 1276.652344 285.382812 C 1276.222656 286.796875 1275.496094 288.125 1274.476562 289.355469 C 1272.164062 292.121094 1269.222656 293.503906 1265.652344 293.503906 C 1262.167969 293.503906 1259.179688 292.167969 1256.699219 289.496094 C 1254.210938 286.8125 1252.96875 283.59375 1252.96875 279.835938 C 1252.96875 276 1254.230469 272.746094 1256.757812 270.074219 C 1259.285156 267.390625 1262.363281 266.046875 1265.984375 266.046875 C 1267.933594 266.046875 1269.75 266.46875 1271.4375 267.308594 C 1273.050781 268.148438 1274.636719 269.515625 1276.199219 271.40625 L 1273.519531 274.132812 C 1271.476562 271.242188 1268.988281 269.796875 1266.050781 269.800781 C 1263.417969 269.800781 1261.207031 270.765625 1259.421875 272.691406 C 1257.636719 274.589844 1256.746094 276.964844 1256.746094 279.820312 C 1256.746094 282.765625 1257.738281 285.191406 1259.730469 287.097656 C 1261.589844 288.867188 1263.605469 289.753906 1265.78125 289.753906 C 1267.628906 289.75 1269.292969 289.089844 1270.765625 287.769531 C 1272.238281 286.4375 1273.058594 284.839844 1273.230469 282.984375 L 1267.019531 282.984375 Z M 1267.019531 279.234375 "
       id="path99" />
    <path
       style=" stroke:none;fill-rule:nonzero;fill:rgb(55.299377%,77.598572%,24.699402%);fill-opacity:1;"
       d="M 1300.664062 266.554688 L 1300.667969 293 L 1296.90625 293 L 1296.902344 266.554688 Z M 1300.664062 266.554688 "
       id="path101" />
    <path
       style=" stroke:none;fill-rule:nonzero;fill:rgb(55.299377%,77.598572%,24.699402%);fill-opacity:1;"
       d="M 1335.261719 270.300781 L 1325.277344 270.304688 L 1325.277344 276.65625 L 1334.972656 276.65625 L 1334.972656 280.40625 L 1325.277344 280.410156 L 1325.28125 289.246094 L 1335.265625 289.246094 L 1335.265625 292.996094 L 1321.519531 292.996094 L 1321.515625 266.554688 L 1335.261719 266.550781 Z M 1335.261719 270.300781 "
       id="path103" />
    <path
       style=" stroke:none;fill-rule:nonzero;fill:rgb(55.299377%,77.598572%,24.699402%);fill-opacity:1;"
       d="M 1369.148438 270.46875 L 1366.101562 272.386719 C 1365.53125 271.335938 1364.988281 270.652344 1364.472656 270.332031 C 1363.933594 269.96875 1363.242188 269.785156 1362.390625 269.785156 C 1361.347656 269.785156 1360.480469 270.101562 1359.792969 270.726562 C 1359.105469 271.34375 1358.761719 272.121094 1358.761719 273.058594 C 1358.761719 274.351562 1359.664062 275.390625 1361.472656 276.179688 L 1363.957031 277.257812 C 1365.976562 278.125 1367.457031 279.183594 1368.390625 280.4375 C 1369.328125 281.6875 1369.796875 283.222656 1369.796875 285.039062 C 1369.796875 287.472656 1369.035156 289.484375 1367.507812 291.070312 C 1365.96875 292.671875 1364.058594 293.472656 1361.78125 293.472656 C 1359.621094 293.472656 1357.832031 292.789062 1356.425781 291.425781 C 1355.039062 290.0625 1354.171875 288.144531 1353.828125 285.679688 L 1357.632812 284.789062 C 1357.804688 286.34375 1358.105469 287.414062 1358.539062 288.007812 C 1359.3125 289.148438 1360.441406 289.722656 1361.925781 289.71875 C 1363.097656 289.71875 1364.070312 289.304688 1364.84375 288.472656 C 1365.621094 287.636719 1366.003906 286.582031 1366.003906 285.304688 C 1366.003906 284.792969 1365.9375 284.320312 1365.804688 283.890625 C 1365.671875 283.464844 1365.460938 283.070312 1365.175781 282.710938 C 1364.890625 282.351562 1364.523438 282.015625 1364.070312 281.703125 C 1363.617188 281.386719 1363.082031 281.089844 1362.457031 280.804688 L 1360.050781 279.742188 C 1356.640625 278.214844 1354.9375 275.976562 1354.9375 273.035156 C 1354.9375 271.050781 1355.652344 269.390625 1357.082031 268.054688 C 1358.511719 266.707031 1360.292969 266.035156 1362.421875 266.035156 C 1365.292969 266.03125 1367.535156 267.511719 1369.148438 270.46875 "
       id="path105" />
  </g>
</svg>
